<svg width="871" height="1514" viewBox="0 0 871 1514" fill="none" xmlns="http://www.w3.org/2000/svg">
<path fill-rule="evenodd" clip-rule="evenodd" d="M276.387 43.5204C287.993 39.0799 293.802 26.0717 289.361 14.4658C284.921 2.85987 271.913 -2.94883 260.307 1.4917C248.537 5.99485 231.576 15.0769 217.406 28.5502C203.288 41.9734 189.349 62.3987 190.885 88.812C191.786 104.304 197.578 118.343 204.367 130.242C211.173 142.171 219.744 153.241 227.54 162.794C230.292 166.167 232.872 169.265 235.293 172.173L235.295 172.176C240.182 178.044 244.423 183.138 248.144 188.16C250.788 191.727 252.626 194.561 253.816 196.805C254.751 198.569 255.011 199.461 255.06 199.627L255.065 199.647C255.067 199.651 255.068 199.654 255.068 199.655C256.113 207.526 254.102 226.58 245.41 242.959C237.284 258.271 225.546 267.799 207.299 267.026C194.884 266.5 184.393 276.138 183.867 288.554C183.341 300.969 192.979 311.46 205.394 311.986C246.148 313.713 271.66 289.492 285.159 264.053C298.059 239.745 302.065 211.132 299.638 193.447C297.91 180.854 290.306 169.473 284.3 161.368C279.805 155.302 274.21 148.579 268.868 142.159C266.637 139.478 264.449 136.849 262.404 134.343C254.95 125.209 248.334 116.498 243.452 107.942C238.554 99.3562 236.158 92.2085 235.809 86.2001C235.345 78.2135 239.323 69.8054 248.413 61.162C257.451 52.5686 268.99 46.3506 276.387 43.5204ZM446.361 14.4658C450.802 26.0717 444.993 39.0799 433.387 43.5204C425.99 46.3506 414.451 52.5686 405.413 61.162C396.323 69.8054 392.345 78.2135 392.809 86.2001C393.158 92.2085 395.554 99.3562 400.452 107.942C405.334 116.498 411.95 125.209 419.404 134.343C421.449 136.849 423.637 139.478 425.868 142.159C431.21 148.579 436.805 155.302 441.3 161.368C447.306 169.473 454.91 180.854 456.638 193.447C459.065 211.132 455.059 239.745 442.159 264.053C428.66 289.492 403.148 313.713 362.394 311.986C349.979 311.46 340.341 300.969 340.867 288.554C341.393 276.138 351.884 266.5 364.3 267.026C382.546 267.799 394.284 258.271 402.41 242.959C411.102 226.58 413.113 207.526 412.068 199.655C412.068 199.654 412.067 199.652 412.066 199.649L412.062 199.635L412.059 199.627C412.011 199.461 411.751 198.569 410.816 196.805C409.626 194.561 407.788 191.727 405.144 188.16C401.423 183.138 397.182 178.044 392.295 172.176C389.873 169.267 387.293 166.168 384.54 162.794C376.744 153.241 368.173 142.171 361.367 130.242C354.578 118.343 348.786 104.304 347.885 88.812C346.349 62.3987 360.288 41.9734 374.406 28.5502C388.576 15.0769 405.537 5.99485 417.307 1.4917C428.913 -2.94883 441.921 2.85987 446.361 14.4658ZM603.361 14.4658C607.802 26.0717 601.993 39.0799 590.387 43.5204C582.99 46.3506 571.451 52.5686 562.413 61.162C553.323 69.8054 549.345 78.2135 549.809 86.2001C550.158 92.2085 552.554 99.3562 557.452 107.942C562.334 116.498 568.95 125.209 576.404 134.343C578.446 136.846 580.631 139.471 582.859 142.149L582.868 142.159C588.21 148.579 593.805 155.302 598.3 161.368C604.306 169.473 611.91 180.854 613.638 193.447C616.065 211.132 612.059 239.745 599.159 264.053C585.66 289.492 560.148 313.713 519.394 311.986C506.979 311.46 497.341 300.969 497.867 288.554C498.393 276.138 508.884 266.5 521.299 267.026C539.546 267.799 551.284 258.271 559.41 242.959C568.102 226.58 570.113 207.526 569.068 199.655C569.067 199.653 569.064 199.644 569.06 199.63L569.06 199.627C569.011 199.461 568.752 198.569 567.816 196.805C566.626 194.561 564.788 191.727 562.144 188.16C558.423 183.138 554.182 178.044 549.295 172.176L549.287 172.165L549.285 172.164L549.267 172.141C546.853 169.243 544.283 166.155 541.54 162.794C533.744 153.241 525.173 142.171 518.367 130.242C511.578 118.343 505.786 104.304 504.885 88.812C503.349 62.3987 517.288 41.9734 531.406 28.5502C545.576 15.0769 562.537 5.99485 574.307 1.4917C585.913 -2.94883 598.921 2.85987 603.361 14.4658ZM90.7586 366.006H105.929H745.944H760.301L766.35 379.027L807.1 466.746L811.071 475.295H819.773H837.41L841.622 492.422L863.196 580.141L870.051 608.014H841.347H806.64L789.231 752.146L731.742 1228.13L699.726 1493.2L697.334 1513.01H677.388H182.156H162.262L159.825 1493.26L127.107 1228.19L68.3566 752.205L50.5593 608.014H26.347H0L4.12436 581.992L18.0273 494.273L21.0352 475.295H40.2499H46.5584L49.5942 467.789L85.0706 380.07L90.7586 366.006ZM751.432 453.725L731.587 411.006H121.1L103.823 453.725H751.432ZM59.4646 520.295L52.6939 563.014H70.4528H786.694H812.643L802.137 520.295H59.4646ZM95.9008 608.014L110.581 726.948H746.948L761.313 608.014H95.9008ZM741.513 771.948H116.135L169.331 1202.93H689.458L695.47 1153.15C691.96 1153.39 688.417 1153.51 684.847 1153.51C597.862 1153.51 527.347 1082.99 527.347 996.006C527.347 909.021 597.862 838.506 684.847 838.506C701.488 838.506 717.527 841.087 732.584 845.87L741.513 771.948ZM684.023 1247.93H174.886L202.049 1468.01H657.442L684.023 1247.93Z" fill="white"/>
</svg>
