<svg width="66" height="47" viewBox="0 0 66 47" fill="none" xmlns="http://www.w3.org/2000/svg">
<path fill-rule="evenodd" clip-rule="evenodd" d="M17.1882 9.23766C17.8455 7.98574 18.9938 6.10545 20.2831 4.55393C20.9285 3.77724 21.5836 3.11424 22.2052 2.65347C22.691 2.29328 23.094 2.10297 23.412 2.03249L24.7267 2.97152C24.2296 3.68235 24.0433 4.602 24.2958 5.50231C25.0952 8.35245 26.3421 11.558 28.0551 14.3973C29.7416 17.1926 32.0524 19.9186 35.1044 21.3867C38.3499 22.9479 42.0571 22.9022 45.8822 20.7774C49.2707 18.8952 52.7084 15.4189 56.254 10.1418L63.2416 21.5896C61.9767 27.6053 57.8862 37.2527 55.7012 41.9624C53.2152 41.9543 49.3034 42.2815 45.3696 42.6978C41.1121 43.1483 36.7547 43.7116 33.9845 44.101C33.9515 44.0937 33.898 44.0811 33.8196 44.06C33.6463 44.0134 33.4244 43.9461 33.1793 43.8673C32.7271 43.7219 32.2295 43.5483 31.8817 43.4228C31.4092 43.1457 31.2722 42.939 31.2386 42.865L31.2377 42.8631C31.2238 42.8325 31.212 42.8068 31.2571 42.7136C31.319 42.5856 31.4629 42.4081 31.708 42.2115C31.7767 42.1564 31.8489 42.1034 31.9228 42.0531C32.7732 41.6774 33.661 41.1576 34.5827 40.4723L35.0316 40.1385L34.9821 39.5813L34.7619 37.1045C35.0941 36.6323 35.6305 35.9948 36.2734 35.458C37.0295 34.8267 37.7917 34.4516 38.455 34.4516H49.337H49.7748L50.0718 34.1298L52.4036 31.6037L50.934 30.2471L48.8992 32.4516H38.455C37.0974 32.4516 35.884 33.1776 34.9916 33.9228C34.827 34.0602 34.6684 34.2024 34.5168 34.3467L34.2048 30.8368C34.1559 30.2867 33.6703 29.8804 33.1202 29.9293C32.5701 29.9782 32.1638 30.4638 32.2127 31.0139L32.9394 39.1894C32.486 39.5011 32.0513 39.7612 31.6351 39.9757L31.6143 39.932C31.4087 40.0294 31.1878 40.1489 30.9668 40.2886C29.2964 40.9904 27.9525 40.9423 26.9233 40.6046C25.4345 40.116 24.3856 38.9517 23.8653 37.9803L20.3947 19.4706L18.4289 19.8391L21.7925 37.778C19.391 38.9884 17.605 38.8058 16.3391 38.2033C14.9428 37.5388 14.0062 36.2805 13.5714 35.2922L10.8715 21.4071L8.90829 21.7888L11.492 35.0767C10.4913 35.5312 9.38385 35.4758 8.28352 35.1266C7.11854 34.7569 6.06271 34.0837 5.3759 33.5151L2.29164 15.1909L6.01347 14.4155L6.45241 14.3241L6.67614 13.9355L9.98888 8.18177L16.0538 9.74132L16.8203 9.93843L17.1882 9.23766ZM57.4165 8.20755L65.1532 20.8826L65.3555 21.2141L65.2812 21.5952C64.0107 28.1064 59.3716 38.8719 57.237 43.3997L56.9566 43.9946L56.2992 43.9727C54.048 43.8976 49.9061 44.2289 45.5801 44.6867C41.2782 45.1419 36.8692 45.7136 34.1254 46.1009L34.0559 46.1108H33.9856C33.7517 46.1108 33.4676 46.0364 33.3003 45.9914C33.0821 45.9328 32.8255 45.8544 32.567 45.7713C32.0481 45.6044 31.4819 45.4057 31.1177 45.2733L31.0407 45.2453L30.9692 45.2051C30.2531 44.8023 29.6987 44.3109 29.4177 43.6923C29.2802 43.3897 29.2227 43.0894 29.2251 42.8019C28.1672 42.9148 27.1889 42.7966 26.2998 42.5049C24.5786 41.9401 23.3229 40.7666 22.5409 39.6389C19.7293 41.0088 17.3477 40.8983 15.4796 40.0092C13.9513 39.2819 12.8624 38.0787 12.1878 36.9566C10.6504 37.6092 9.04434 37.4663 7.67857 37.0329C6.02764 36.509 4.60278 35.5288 3.775 34.773L3.52037 34.5405L3.46314 34.2005L0.159689 14.5741L0 13.6254L0.941864 13.4291L5.16661 12.549L8.63498 6.52498L9.01433 5.86611L9.75065 6.05545L15.7977 7.6104C16.5204 6.32864 17.5695 4.69008 18.7449 3.27569C19.4451 2.43304 20.2158 1.63863 21.014 1.04684C21.7951 0.467816 22.7132 0 23.687 0H24.0075L24.2683 0.186267L26.4903 1.77345C28.049 1.40166 29.6363 2.32533 30.0729 3.88192C30.7632 6.34322 31.8207 9.02393 33.1925 11.2977C34.5909 13.6155 36.1454 15.2294 37.7053 15.9797C39.0717 16.637 40.7228 16.7798 42.9687 15.5323C45.3789 14.1935 48.4443 11.2456 52.0567 5.60112C52.9499 4.2056 54.8052 3.79834 56.2007 4.69147C57.3951 5.45586 57.8655 6.92503 57.4165 8.20755Z" fill="white"/>
</svg>
